<svg width="512" height="512" viewBox="0 0 512 512" fill="none" xmlns="http://www.w3.org/2000/svg">
<path d="M500.692 481.957L500.036 481.79L486.548 427.857C485.516 423.727 482.777 420.23 479.015 418.239C474.463 415.828 390.064 371.89 312.028 380.202C371.726 349.137 459.915 365.979 461.056 366.206C469.179 367.826 477.079 362.562 478.705 354.438C480.329 346.315 475.062 338.413 466.938 336.788C465.218 336.444 424.289 328.411 376.698 332.554C322.255 337.288 281.069 356.22 255.999 387.732C230.93 356.22 189.744 337.289 135.301 332.554C87.7058 328.414 46.7804 336.445 45.0614 336.788C36.9425 338.412 31.6806 346.306 33.2975 354.426C34.9145 362.546 42.8094 367.819 50.9333 366.208C52.0803 365.98 140.272 349.137 199.971 380.203C121.936 371.892 37.5375 415.829 32.9845 418.24C29.2226 420.231 26.4836 423.728 25.4516 427.858L11.9638 481.791L11.3078 481.958C3.27895 483.999 -1.57499 492.162 0.464985 500.191C2.50496 508.219 10.6638 513.073 18.6977 511.034L186.141 468.472C199.618 494.079 226.189 510.495 255.999 510.495C285.808 510.495 312.38 494.079 325.856 468.472L493.299 511.034C494.539 511.348 495.781 511.5 497.005 511.5C503.702 511.499 509.807 506.979 511.532 500.191C513.575 492.161 508.721 483.998 500.692 481.957ZM320.745 436.217C313.029 434.257 305.133 438.659 302.743 446.247C296.289 466.732 277.505 480.494 256 480.494C234.496 480.494 215.712 466.732 209.258 446.247C206.868 438.659 198.974 434.254 191.256 436.217L44.9864 473.397L52.8733 441.861C78.7879 429.502 184.548 383.791 247.399 427.784C252.563 431.399 259.437 431.399 264.601 427.784C327.308 383.891 433.207 429.544 459.13 441.871L467.014 473.397L320.745 436.217Z" fill="#34315D"/>
<path d="M427.998 66.5011H440.998V79.5009C440.998 87.7848 447.714 94.5007 455.998 94.5007C464.282 94.5007 470.998 87.7848 470.998 79.5009V66.5011H483.997C492.281 66.5011 498.997 59.7852 498.997 51.5013C498.997 43.2174 492.281 36.5015 483.997 36.5015H470.998V23.5017C470.998 15.2178 464.282 8.50188 455.998 8.50188C447.714 8.50188 440.998 15.2178 440.998 23.5017V36.5015H427.998C419.714 36.5015 412.998 43.2174 412.998 51.5013C412.998 59.7852 419.714 66.5011 427.998 66.5011Z" fill="#34315D"/>
<path d="M426.228 225.653L330.229 265.652C322.584 268.838 318.967 277.62 322.154 285.267C324.554 291.028 330.13 294.501 336.005 294.501C337.928 294.501 339.883 294.129 341.769 293.343L437.768 253.344C445.414 250.158 449.031 241.376 445.844 233.729C442.657 226.083 433.875 222.464 426.228 225.653Z" fill="#34315D"/>
<path d="M284.525 278.09C285.694 278.368 286.862 278.502 288.012 278.502C294.798 278.502 300.95 273.863 302.591 266.973L342.59 98.9756C344.509 90.9157 339.531 82.8289 331.473 80.9099C323.41 78.9919 315.327 83.9688 313.408 92.0267L273.408 260.024C271.489 268.083 276.466 276.171 284.525 278.09Z" fill="#34315D"/>
<path d="M209.151 265.619C210.22 273.101 216.637 278.5 223.982 278.5C224.688 278.5 225.403 278.45 226.122 278.348C234.323 277.176 240.021 269.578 238.851 261.377L222.851 149.379C221.679 141.178 214.071 135.477 205.88 136.65C197.679 137.822 191.981 145.42 193.151 153.621L209.151 265.619Z" fill="#34315D"/>
<path d="M53.3963 172.893C47.5383 178.75 47.5383 188.247 53.3963 194.105L149.395 290.104C152.324 293.033 156.163 294.498 160.001 294.498C163.839 294.498 167.679 293.033 170.607 290.104C176.465 284.247 176.465 274.749 170.607 268.891L74.608 172.893C68.7521 167.036 59.2542 167.036 53.3963 172.893Z" fill="#34315D"/>
<path d="M48.0034 94.5007C73.919 94.5007 95.0027 73.417 95.0027 47.5014C95.0027 21.5857 73.919 0.501999 48.0034 0.501999C22.0877 0.501999 1.004 21.5857 1.004 47.5014C1.004 73.417 22.0877 94.5007 48.0034 94.5007ZM48.0034 30.5016C57.3772 30.5016 65.0031 38.1275 65.0031 47.5014C65.0031 56.8752 57.3772 64.5011 48.0034 64.5011C38.6295 64.5011 31.0036 56.8752 31.0036 47.5014C31.0036 38.1275 38.6295 30.5016 48.0034 30.5016Z" fill="#34315D"/>
<path d="M24.0039 286.499C32.2881 286.499 39.0039 279.784 39.0039 271.499C39.0039 263.215 32.2881 256.499 24.0039 256.499C15.7196 256.499 9.00388 263.215 9.00388 271.499C9.00388 279.784 15.7196 286.499 24.0039 286.499Z" fill="#34315D"/>
<path d="M391.999 166.498C400.283 166.498 406.999 159.782 406.999 151.498C406.999 143.214 400.283 136.498 391.999 136.498C383.715 136.498 376.999 143.214 376.999 151.498C376.999 159.782 383.715 166.498 391.999 166.498Z" fill="#34315D"/>
<path d="M256.001 78.5003C264.285 78.5003 271.001 71.7846 271.001 63.5003C271.001 55.2161 264.285 48.5003 256.001 48.5003C247.716 48.5003 241.001 55.2161 241.001 63.5003C241.001 71.7846 247.716 78.5003 256.001 78.5003Z" fill="#34315D"/>
</svg>
